<svg xmlns="http://www.w3.org/2000/svg" viewBox="0 0 374 176.5"><path fill="#1C1D21" d="M0 0h374v176.5H0z"/><path fill="#FFF" d="M96.9 132.5c0 2.1-.5 4-1.6 5.7s-2.6 2.9-4.7 3.8-4.4 1.4-7.1 1.4c-2.3 0-4.2-.2-5.7-.5s-3.2-.9-4.8-1.7v-8.3c1.8.9 3.6 1.6 5.5 2.1s3.7.8 5.3.8c1.4 0 2.4-.2 3-.7s1-1.1 1-1.8c0-.5-.1-.9-.4-1.2s-.7-.7-1.2-1.1-2.1-1.1-4.6-2.2c-2.2-1-3.9-2-5-3s-1.9-2-2.5-3.3-.8-2.7-.8-4.4c0-3.2 1.1-5.6 3.4-7.4s5.5-2.6 9.5-2.6c3.5 0 7.2.8 10.9 2.5l-2.8 7.1c-3.2-1.5-6-2.2-8.3-2.2-1.2 0-2.1.2-2.6.6s-.8.9-.8 1.6c0 .7.3 1.3 1 1.8s2.6 1.5 5.7 2.9c3 1.3 5 2.8 6.2 4.3s1.4 3.5 1.4 5.8zm34.6 10.4H121l-6.8-13.1-2.7 1.6v11.5h-9.3v-34.3h9.3v14.9c.5-.9 1.4-2.4 2.8-4.4l7.2-10.5h10.1L120.8 124l10.7 18.9zm24 0h-20.3v-34.3h20.3v7.4h-11.1v5.4h10.3v7.4h-10.3v6.5h11.1v7.6zm6 0v-34.3h9.3v26.8H184v7.5h-22.5zm48.3 0h-20.3v-34.3h20.3v7.4h-11.1v5.4H209v7.4h-10.3v6.5h11.1v7.6zm21.1 0h-9.3v-26.7h-8.4v-7.6h26v7.6h-8.3v26.7zm34.3 0l-1.7-6.4h-11.1l-1.7 6.4h-10.2l11.2-34.4H264l11.3 34.4h-10.1zm-3.6-14l-1.5-5.6c-.3-1.3-.8-2.9-1.3-4.9s-.8-3.4-1-4.3c-.1.8-.4 2.1-.8 3.9s-1.3 5.4-2.8 10.8h7.4zm17.4 14v-34.3h9.3v26.8h13.2v7.5H279z"/><g fill="#FFF"><path d="M197.3 81.2c-.6 0-1.1-.5-1.1-1.1V68.6c0-.6.5-1.1 1.1-1.1 5.7 0 10.3-4.6 10.3-10.3v-5.7c0-11.4-9.3-20.7-20.7-20.7-11.4 0-20.7 9.3-20.7 20.7v5.7c0 5.7 4.6 10.3 10.3 10.3.6 0 1.1.5 1.1 1.1v11.5c0 .6-.5 1.1-1.1 1.1s-1.1-.5-1.1-1.1V69.7c-6.4-.6-11.5-6-11.5-12.6v-5.7c0-12.7 10.3-23 23-23s23 10.3 23 23v5.7c0 6.6-5.1 12-11.5 12.6v10.4c.1.6-.4 1.1-1.1 1.1zm-6.9 0c-.6 0-1.1-.5-1.1-1.1V68.6c0-.6.5-1.1 1.1-1.1s1.1.5 1.1 1.1v11.5c.1.6-.4 1.1-1.1 1.1zm-6.8 0c-.6 0-1.1-.5-1.1-1.1V68.6c0-.6.5-1.1 1.1-1.1s1.1.5 1.1 1.1v11.5c0 .6-.5 1.1-1.1 1.1z"/><path d="M208.5 49.1h-.8c-4.5 0-9-3.2-9-10.3 0-.6.5-1.1 1.1-1.1.6 0 1.1.5 1.1 1.1 0 5.9 3.5 8 6.8 8h.8c.6 0 1.1.5 1.1 1.1 0 .7-.5 1.2-1.1 1.2zm-42.2 0h-.9c-.6 0-1.1-.5-1.1-1.1 0-.6.5-1.1 1.1-1.1h.9c3.3 0 6.8-2.1 6.8-8 0-.6.5-1.1 1.1-1.1s1.1.5 1.1 1.1c.1 7-4.5 10.2-9 10.2zm31 16c-4.4 0-8-3.6-8-8s3.6-8 8-8 8 3.6 8 8-3.5 8-8 8zm0-13.7c-3.2 0-5.7 2.6-5.7 5.7 0 3.2 2.6 5.7 5.7 5.7 3.2 0 5.7-2.6 5.7-5.7.1-3.2-2.5-5.7-5.7-5.7zm-20.6 13.7c-4.4 0-8-3.6-8-8s3.6-8 8-8 8 3.6 8 8-3.6 8-8 8zm0-13.7c-3.2 0-5.7 2.6-5.7 5.7 0 3.2 2.6 5.7 5.7 5.7s5.7-2.6 5.7-5.7c0-3.2-2.6-5.7-5.7-5.7zm11.4 13.7h-2.3c-.4 0-.8-.2-1-.5s-.2-.8-.1-1.1l1.1-2.3c.4-.8 1.7-.8 2.1 0l1.1 2.3c.2.4.2.8 0 1.1-.1.3-.5.5-.9.5z"/></g><circle cx="187" cy="54.8" r="35.3" fill="none" stroke="#FFF" stroke-width="2" stroke-miterlimit="10" stroke-linecap="round" stroke-dasharray="6.15 6.15"/></svg>